# xmcd
#
# Track frame offsets:
#	150
#	8283
#	19516
#	29976
#	43071
#	55769
#	68005
#	80631
#	88952
#	98897
#	113752
#	121774
#	131045
#	144467
#	158196
#	166869
#
# Disc length: 2364 seconds
#
# Revision: 0
# Processed by: cddbd v1.5.1PL0 Copyright (c) Steve Scherf et al.
# Submitted via: dBpowerAMP V4.0
#
DISCID=cc093a10
DTITLE=Willie Nelson - You're Always On My Mind [CD 2)
DYEAR=1995
DGENRE=Country
TTITLE0=You Wouldn't Cross The Street To Say Goodbye
TTITLE1=Suffering In Silence
TTITLE2=I Feel Sorry For Him
TTITLE3=You'll Always Have Someone
TTITLE4=I Just Don't Understand
TTITLE5=Shelter Of My Arms
TTITLE6=Any Old Arms Won't Do
TTITLE7=Slow Down Old World
TTITLE8=Healing Hands Of Time
TTITLE9=And So Will You My Love
TTITLE10=Things To Remember
TTITLE11=One Step Beyond
TTITLE12=Undo The Wrong
TTITLE13=Home Is Where You're Happy
TTITLE14=Why Are You Picking On Me
TTITLE15=Blame It On The Time
EXTD=
EXTT0=
EXTT1=
EXTT2=
EXTT3=
EXTT4=
EXTT5=
EXTT6=
EXTT7=
EXTT8=
EXTT9=
EXTT10=
EXTT11=
EXTT12=
EXTT13=
EXTT14=
EXTT15=
PLAYORDER=
